<svg width="34" height="28" viewBox="0 0 34 28" fill="none" xmlns="http://www.w3.org/2000/svg">
<path d="M20.8833 27.3333H20.5333C19.8279 27.2634 19.1632 26.9703 18.6357 26.4967C18.1082 26.0232 17.7454 25.3938 17.6 24.7L13.1333 4.00001L8.53333 14.6667C8.40322 14.9648 8.18871 15.2183 7.91624 15.396C7.64378 15.5737 7.32528 15.6678 7 15.6667H1.99999C1.55797 15.6667 1.13404 15.4911 0.821484 15.1785C0.508923 14.866 0.333328 14.442 0.333328 14C0.333328 13.558 0.508923 13.1341 0.821484 12.8215C1.13404 12.5089 1.55797 12.3333 1.99999 12.3333H5.9L10.0833 2.68334C10.3649 2.03578 10.8449 1.49438 11.4541 1.13719C12.0632 0.780012 12.7701 0.625507 13.4727 0.695954C14.1753 0.766402 14.8374 1.05816 15.3635 1.52917C15.8896 2.00018 16.2526 2.6261 16.4 3.31668L20.8667 24L25.4667 13.3667C25.5917 13.0623 25.804 12.8018 26.0769 12.6179C26.3498 12.434 26.671 12.335 27 12.3333H32C32.442 12.3333 32.8659 12.5089 33.1785 12.8215C33.4911 13.1341 33.6667 13.558 33.6667 14C33.6667 14.442 33.4911 14.866 33.1785 15.1785C32.8659 15.4911 32.442 15.6667 32 15.6667H28.1L23.9167 25.3167C23.6612 25.9109 23.2384 26.4179 22.6998 26.776C22.1612 27.1341 21.5301 27.3277 20.8833 27.3333Z" fill="#C1BBEB"/>
</svg>
