<svg width="38" height="34" viewBox="0 0 38 34" fill="none" xmlns="http://www.w3.org/2000/svg">
<path d="M32.3333 0.333344H15.6667C14.3406 0.333344 13.0688 0.860128 12.1311 1.79781C11.1935 2.73549 10.6667 4.00726 10.6667 5.33334V8.66668H5.66667C4.34059 8.66668 3.06882 9.19346 2.13114 10.1311C1.19346 11.0688 0.666672 12.3406 0.666672 13.6667V23.6667C0.66613 24.7011 0.986431 25.7102 1.58343 26.555C2.18043 27.3997 3.02474 28.0385 4.00001 28.3833V32C4.00051 32.2953 4.07949 32.5852 4.22884 32.84C4.37819 33.0948 4.59256 33.3053 4.85001 33.45C5.0991 33.5912 5.38036 33.6658 5.66667 33.6667C5.96581 33.6666 6.25941 33.586 6.51667 33.4333L14.4667 28.6667H22.3333C23.6594 28.6667 24.9312 28.1399 25.8689 27.2022C26.8066 26.2645 27.3333 24.9928 27.3333 23.6667V22.6167L31.4833 25.1C31.7406 25.2527 32.0342 25.3333 32.3333 25.3333C32.6196 25.3325 32.9009 25.2579 33.15 25.1167C33.4074 24.972 33.6218 24.7615 33.7712 24.5067C33.9205 24.2519 33.9995 23.962 34 23.6667V20.05C34.9753 19.7052 35.8196 19.0664 36.4166 18.2216C37.0136 17.3769 37.3339 16.3678 37.3333 15.3333V5.33334C37.3333 4.00726 36.8066 2.73549 35.8689 1.79781C34.9312 0.860128 33.6594 0.333344 32.3333 0.333344ZM24 23.6667C24 24.1087 23.8244 24.5326 23.5118 24.8452C23.1993 25.1578 22.7754 25.3333 22.3333 25.3333H14C13.7009 25.3334 13.4073 25.414 13.15 25.5667L7.33334 29.05V27C7.33334 26.558 7.15774 26.1341 6.84518 25.8215C6.53262 25.5089 6.1087 25.3333 5.66667 25.3333C5.22464 25.3333 4.80072 25.1578 4.48816 24.8452C4.1756 24.5326 4.00001 24.1087 4.00001 23.6667V13.6667C4.00001 13.2246 4.1756 12.8007 4.48816 12.4882C4.80072 12.1756 5.22464 12 5.66667 12H10.6667V15.3333C10.6667 16.6594 11.1935 17.9312 12.1311 18.8689C13.0688 19.8066 14.3406 20.3333 15.6667 20.3333H23.5333L24 20.6167V23.6667ZM34 15.3333C34 15.7754 33.8244 16.1993 33.5118 16.5119C33.1993 16.8244 32.7754 17 32.3333 17C31.8913 17 31.4674 17.1756 31.1548 17.4882C30.8423 17.8007 30.6667 18.2246 30.6667 18.6667V20.7167L24.85 17.2333C24.5927 17.0807 24.2991 17.0001 24 17H15.6667C15.2246 17 14.8007 16.8244 14.4882 16.5119C14.1756 16.1993 14 15.7754 14 15.3333V5.33334C14 4.89132 14.1756 4.46739 14.4882 4.15483C14.8007 3.84227 15.2246 3.66668 15.6667 3.66668H32.3333C32.7754 3.66668 33.1993 3.84227 33.5118 4.15483C33.8244 4.46739 34 4.89132 34 5.33334V15.3333Z" fill="#C1BBEB"/>
</svg>
